# xmcd CD database file
#
# Track frame offsets:
#	225
#	12625
#	31075
#	46502
#	58649
#	72777
#	83303
#	93340
#	104685
#	117920
#	127191
#	139192
#	152610
#	165016
#	177699
#	192815
#
# Disc length: 2760 seconds
#
# Revision: 2
# Processed by: cddbd v1.4PL0 Copyright (c) Steve Scherf et al.
# Submitted via: CDex 1.40Beta8
#
DISCID=c90ac510
DTITLE=Ronny - Fernweh
DYEAR=1995
DGENRE=Folklore
TTITLE0=Wo die Nordseewellen trekken an den Strand
TTITLE1=Nimm uns mit Kapitän auf die Reise
TTITLE2=La Paloma
TTITLE3=Wir lieben die Stürme
TTITLE4=My Bonnie is over the Ocean
TTITLE5=Wir lagen vor Madagaskar
TTITLE6=Klein Möwe flieg nach Helgoland
TTITLE7=Vaya con Dios
TTITLE8=De Hamborger Veermaster
TTITLE9=What shall I do with the Drunken Sailor
TTITLE10=Aloha Oe
TTITLE11=Winde wehn
TTITLE12=Auf einem Seemannsgrab
TTITLE13=Shenandoah
TTITLE14=Good night,Ladies
TTITLE15=Rolling Home
EXTD=YEAR: 1995 ID3G: 115
EXTT0=
EXTT1=
EXTT2=
EXTT3=
EXTT4=
EXTT5=
EXTT6=
EXTT7=
EXTT8=
EXTT9=
EXTT10=
EXTT11=
EXTT12=
EXTT13=
EXTT14=
EXTT15=
PLAYORDER=
